<svg width="60" height="60" viewBox="0 0 60 60" fill="none" xmlns="http://www.w3.org/2000/svg">
  <rect width="60" height="60" rx="8" fill="#FFD700"/>
  <rect x="8" y="8" width="44" height="44" rx="6" fill="#FFEE40"/>
  
  <!-- Destansı Silah -->
  <path d="M15 25L45 25L45 35L15 35L15 25Z" fill="#FFF9C0"/>
  <rect x="20" y="27" width="20" height="6" fill="#FFEE40"/>
  <circle cx="25" cy="30" r="2" fill="#F59E0B"/>
  <circle cx="35" cy="30" r="2" fill="#F59E0B"/>
  
  <!-- Altın parıltı efekti -->
  <circle cx="18" cy="28" r="1" fill="#FCD34D" opacity="0.9"/>
  <circle cx="42" cy="32" r="1" fill="#FCD34D" opacity="0.9"/>
  <circle cx="30" cy="26" r="0.5" fill="#FDE68A" opacity="0.7"/>
  
  <!-- Özel detaylar -->
  <rect x="22" y="29" width="2" height="2" fill="#FEF3C7"/>
  <rect x="36" y="29" width="2" height="2" fill="#FEF3C7"/>
  
  <!-- Enerji efekti -->
  <path d="M15 25L17 23L19 25L21 23L23 25L25 23L27 25L29 23L31 25L33 23L35 25L37 23L39 25L41 23L43 25L45 25L45 35L43 33L41 35L39 33L37 35L35 33L33 35L31 33L29 35L27 33L25 35L23 33L21 35L19 33L17 35L15 33L15 25Z" fill="none" stroke="#FCD34D" stroke-width="0.5" opacity="0.8"/>
  
  <!-- Yıldız efekti -->
  <path d="M30 20L31 22L33 22L31.5 23.5L32 26L30 25L28 26L28.5 23.5L27 22L29 22L30 20Z" fill="#FCD34D"/>
  <path d="M20 30L21 32L23 32L21.5 33.5L22 36L20 35L18 36L18.5 33.5L17 32L19 32L20 30Z" fill="#FCD34D"/>
  <path d="M40 30L41 32L43 32L41.5 33.5L42 36L40 35L38 36L38.5 33.5L37 32L39 32L40 30Z" fill="#FCD34D"/>
</svg>

