<svg width="120" height="120" viewBox="0 0 120 120" xmlns="http://www.w3.org/2000/svg">
  <!-- Background -->
  <circle cx="60" cy="60" r="58" fill="#2D3748" stroke="#4A5568" stroke-width="2"/>
  
  <!-- Head -->
  <circle cx="60" cy="55" r="25" fill="#F7FAFC"/>
  
  <!-- Hat -->
  <ellipse cx="60" cy="35" rx="28" ry="8" fill="#8B4513"/>
  <rect x="45" y="35" width="30" height="12" fill="#8B4513"/>
  <ellipse cx="60" cy="47" rx="25" ry="6" fill="#8B4513"/>
  
  <!-- Face -->
  <!-- Eyes -->
  <circle cx="55" cy="50" r="2" fill="#2D3748"/>
  <circle cx="65" cy="50" r="2" fill="#2D3748"/>
  
  <!-- Eyebrows -->
  <path d="M52 47 Q55 45 58 47" stroke="#2D3748" stroke-width="1.5" fill="none"/>
  <path d="M62 47 Q65 45 68 47" stroke="#2D3748" stroke-width="1.5" fill="none"/>
  
  <!-- Mustache -->
  <path d="M50 60 Q55 58 60 60 Q65 58 70 60" stroke="#8B4513" stroke-width="2" fill="none"/>
  
  <!-- Nose -->
  <path d="M60 52 Q62 55 60 58" stroke="#CBD5E0" stroke-width="1" fill="none"/>
  
  <!-- Mouth -->
  <path d="M55 62 Q60 65 65 62" stroke="#2D3748" stroke-width="1.5" fill="none"/>
  
  <!-- Suit -->
  <rect x="40" y="80" width="40" height="35" fill="#8B4513"/>
  <rect x="45" y="85" width="30" height="25" fill="#A0522D"/>
  
  <!-- Tie -->
  <path d="M55 85 L60 95 L65 85 L60 90 Z" fill="#1A202C"/>
  
  <!-- Shoulders -->
  <ellipse cx="60" cy="115" rx="35" ry="8" fill="#8B4513"/>
</svg>

